<svg width="400" height="400" viewBox="0 0 400 400" xmlns="http://www.w3.org/2000/svg">
    <circle cx="200" cy="200" r="180" fill="#0A2A4A"/>
    <circle cx="200" cy="200" r="180" fill="none" stroke="#F2C14E" stroke-width="6"/>
    <circle cx="200" cy="200" r="160" fill="none" stroke="#4A9FE0" stroke-width="2" opacity="0.6"/>

    <g transform="translate(200 190) rotate(-20)">
        <rect x="-55" y="-80" width="110" height="160" rx="10" fill="#FFFFFF" stroke="#0A2A4A" stroke-width="3"/>
        <path d="M0 -40 C 0 -40, -25 -10, -25 8 C -25 20, -15 26, -6 24
            C -8 34, -14 42, -22 47 L 22 47
            C 14 42, 8 34, 6 24 C 15 26, 25 20, 25 8
            C 25 -10, 0 -40, 0 -40 Z"
            fill="#0A2A4A" transform="translate(0 5) scale(0.9)"/>
    </g>

    <g transform="translate(200 190) rotate(20)">
        <rect x="-55" y="-80" width="110" height="160" rx="10" fill="#FFFFFF" stroke="#0A2A4A" stroke-width="3"/>
        <path d="M0 -40 C 0 -40, -28 -12, -28 10
            C -28 26, -12 30, 0 18
            C 12 30, 28 26, 28 10
            C 28 -12, 0 -40, 0 -40 Z"
            fill="#D62839" transform="translate(0 8) scale(0.9)"/>
    </g>

    <path d="M200 95
           C 200 95, 160 140, 160 172
           C 160 194, 178 206, 194 200
           C 190 218, 180 232, 166 240
           L 234 240
           C 220 232, 210 218, 206 200
           C 222 206, 240 194, 240 172
           C 240 140, 200 95, 200 95 Z"
           fill="#0A4D8C" stroke="#F2C14E" stroke-width="4"/>

    <g transform="translate(90 300)">
        <circle r="22" fill="#D62839" stroke="#FFFFFF" stroke-width="4"/>
        <circle r="22" fill="none" stroke="#0A2A4A" stroke-width="2"/>
        <circle r="9" fill="#FFFFFF"/>
    </g>

    <g transform="translate(310 300)">
        <circle r="22" fill="#4A9FE0" stroke="#FFFFFF" stroke-width="4"/>
        <circle r="22" fill="none" stroke="#0A2A4A" stroke-width="2"/>
        <circle r="9" fill="#FFFFFF"/>
    </g>

    <text x="200" y="325" font-family="Arial, Helvetica, sans-serif"
        font-size="64" font-weight="900" fill="#F2C14E"
        text-anchor="middle" letter-spacing="6">MS</text>

    <text x="200" y="360" font-family="Arial, Helvetica, sans-serif"
        font-size="30" font-weight="700" fill="#FFFFFF"
        text-anchor="middle" letter-spacing="8">POKER</text>
</svg>